<svg width="351" height="464" viewBox="0 0 351 464" fill="none" xmlns="http://www.w3.org/2000/svg">
<g filter="url(#filter0_d_0_364)">
<rect x="36.1232" y="29" width="280" height="394" rx="20" transform="rotate(0.308765 36.1232 29)" fill="#F2F2F2"/>
<rect x="36.6205" y="29.5027" width="279" height="393" rx="19.5" transform="rotate(0.308765 36.6205 29.5027)" stroke="#D2D2D2"/>
</g>
<path d="M116.988 125.437L78.0037 125.227L78.0454 117.493L96.5492 97.9829C99.0901 95.2361 100.965 92.8373 102.174 90.7865C103.409 88.7358 104.032 86.786 104.042 84.9371C104.055 82.4111 103.428 80.4285 102.159 78.9894C100.891 77.5242 99.0724 76.7852 96.7026 76.7724C94.1506 76.7587 92.1276 77.6332 90.6337 79.396C89.166 81.1329 88.4244 83.4337 88.409 86.2982L77.081 86.2372C77.0997 82.7737 77.937 79.6141 79.5931 76.7584C81.2751 73.9028 83.6309 71.6759 86.6604 70.0776C89.69 68.4533 93.1189 67.6514 96.947 67.6721C102.806 67.7036 107.343 69.1344 110.557 71.9642C113.797 74.7942 115.403 78.7743 115.375 83.9044C115.36 86.7169 114.616 89.5775 113.142 92.4863C111.668 95.395 109.149 98.7799 105.587 102.641L92.5838 116.204L117.037 116.336L116.988 125.437Z" fill="#F24822"/>
<path fill-rule="evenodd" clip-rule="evenodd" d="M109.757 160.401C99.0666 160.508 96.876 172.666 96.876 172.666C96.876 172.666 94.4748 160.483 83.7861 160.261C73.0971 160.039 66.4681 169.377 70.0332 179.264C73.598 189.151 77.191 191.391 82.8329 198.575C88.4745 205.76 96.6719 218.18 96.615 221.099C96.5898 218.179 104.578 205.847 110.297 198.723C116.016 191.6 119.633 189.399 123.304 179.551C126.976 169.703 120.448 160.294 109.757 160.401Z" fill="#F24822"/>
<defs>
<filter id="filter0_d_0_364" x="0.107483" y="0.107483" width="349.904" height="463.288" filterUnits="userSpaceOnUse" color-interpolation-filters="sRGB">
<feFlood flood-opacity="0" result="BackgroundImageFix"/>
<feColorMatrix in="SourceAlpha" type="matrix" values="0 0 0 0 0 0 0 0 0 0 0 0 0 0 0 0 0 0 127 0" result="hardAlpha"/>
<feOffset dy="5"/>
<feGaussianBlur stdDeviation="17"/>
<feColorMatrix type="matrix" values="0 0 0 0 0 0 0 0 0 0 0 0 0 0 0 0 0 0 0.1 0"/>
<feBlend mode="normal" in2="BackgroundImageFix" result="effect1_dropShadow_0_364"/>
<feBlend mode="normal" in="SourceGraphic" in2="effect1_dropShadow_0_364" result="shape"/>
</filter>
</defs>
</svg>
